<?xml version="1.0" standalone="no"?>
<!DOCTYPE svg PUBLIC "-//W3C//DTD SVG 20010904//EN"
 "http://www.w3.org/TR/2001/REC-SVG-20010904/DTD/svg10.dtd">
<svg version="1.0" xmlns="http://www.w3.org/2000/svg"
 width="200.000000pt" height="68.000000pt" viewBox="0 0 200.000000 68.000000"
 preserveAspectRatio="xMidYMid meet">

<g transform="translate(0.000000,68.000000) scale(0.100000,-0.100000)"
fill="#000000" stroke="none">
<path d="M1860 440 c-12 -7 -12 -10 -1 -10 10 0 12 -18 9 -80 -3 -77 -2 -80
19 -80 24 0 31 14 13 25 -5 3 -10 40 -10 81 0 75 -3 81 -30 64z"/>
<path d="M768 365 c3 -43 0 -70 -8 -80 -10 -13 -9 -15 12 -15 24 0 25 2 22 53
l-4 52 25 -53 c14 -29 29 -51 34 -47 5 3 15 22 21 43 20 61 33 63 28 5 -5 -50
-4 -53 18 -53 26 0 30 10 13 27 -7 7 -10 35 -7 72 4 52 2 61 -12 61 -11 0 -22
-18 -34 -55 -9 -30 -21 -55 -26 -55 -5 0 -17 25 -26 55 -14 44 -22 55 -39 55
-20 0 -21 -4 -17 -65z"/>
<path d="M1500 420 c0 -5 5 -10 10 -10 6 0 10 -24 10 -54 0 -30 -4 -58 -10
-61 -20 -12 -9 -25 20 -25 17 0 30 5 30 10 0 6 -4 10 -10 10 -5 0 -10 9 -10
20 0 15 7 20 24 20 52 0 74 56 34 84 -25 18 -98 22 -98 6z m94 -25 c9 -25 -4
-45 -30 -45 -20 0 -24 5 -24 30 0 25 4 30 24 30 13 0 26 -7 30 -15z"/>
<path d="M970 370 c-24 -24 -25 -48 -4 -78 18 -26 56 -29 74 -6 20 23 16 75
-5 90 -26 19 -42 17 -65 -6z m58 -42 c3 -33 0 -38 -18 -38 -23 0 -40 33 -32
63 3 12 12 17 26 15 16 -2 22 -11 24 -40z"/>
<path d="M1075 380 c-3 -5 -1 -10 4 -10 15 0 14 -73 -1 -88 -9 -9 -6 -12 14
-12 25 0 26 2 21 39 -5 33 -2 41 16 50 27 15 36 -4 28 -54 -5 -29 -3 -35 12
-35 16 0 17 7 13 53 -5 58 -16 71 -46 55 -15 -8 -21 -8 -24 1 -5 14 -29 15
-37 1z"/>
<path d="M1227 372 c-10 -10 -17 -33 -17 -51 0 -39 36 -61 72 -43 l23 11 -25
0 c-50 2 -68 41 -20 41 34 0 49 22 30 45 -17 20 -43 19 -63 -3z m48 -12 c3 -5
-3 -10 -14 -10 -12 0 -21 5 -21 10 0 6 6 10 14 10 8 0 18 -4 21 -10z"/>
<path d="M1318 385 c-3 -3 4 -31 15 -62 20 -53 20 -56 3 -69 -10 -7 -15 -18
-11 -24 15 -25 62 48 90 138 6 19 4 23 -10 20 -12 -2 -19 -15 -22 -38 -5 -53
-20 -58 -30 -9 -8 39 -22 57 -35 44z"/>
<path d="M1645 376 c-21 -15 -25 -67 -5 -90 18 -23 56 -20 74 6 21 30 20 54
-4 78 -23 23 -39 25 -65 6z m55 -26 c16 -30 3 -62 -23 -58 -35 5 -37 78 -3 78
9 0 20 -9 26 -20z"/>
<path d="M1760 370 c-24 -24 -25 -48 -4 -78 18 -26 56 -29 74 -6 20 23 16 75
-5 90 -26 19 -42 17 -65 -6z m58 -42 c3 -33 0 -38 -18 -38 -23 0 -40 33 -32
63 3 12 12 17 26 15 16 -2 22 -11 24 -40z"/>
</g>
</svg>
